<mxfile host="Electron" modified="2023-05-14T13:54:05.778Z" agent="Mozilla/5.0 (X11; Linux x86_64) AppleWebKit/537.36 (KHTML, like Gecko) draw.io/21.2.8 Chrome/112.0.5615.165 Electron/24.2.0 Safari/537.36" etag="qjRZHhdEYiSxG_GNtk93" version="21.2.8" type="device">
  <diagram id="-oPqAkTAHKP7xbguGdnS" name="Page-1">
    <mxGraphModel dx="1258" dy="595" grid="1" gridSize="10" guides="1" tooltips="1" connect="1" arrows="1" fold="1" page="1" pageScale="1" pageWidth="827" pageHeight="1169" math="0" shadow="0">
      <root>
        <mxCell id="WIyWlLk6GJQsqaUBKTNV-0" />
        <mxCell id="WIyWlLk6GJQsqaUBKTNV-1" parent="WIyWlLk6GJQsqaUBKTNV-0" />
        <mxCell id="dUlK9dB9uf_rlsajjsYS-0" value="&lt;font style=&quot;font-size: 15px;&quot;&gt;Cliente&lt;/font&gt;" style="rounded=0;whiteSpace=wrap;html=1;" parent="WIyWlLk6GJQsqaUBKTNV-1" vertex="1">
          <mxGeometry x="120" y="110" width="120" height="60" as="geometry" />
        </mxCell>
        <mxCell id="dUlK9dB9uf_rlsajjsYS-1" value="" style="rhombus;whiteSpace=wrap;html=1;" parent="WIyWlLk6GJQsqaUBKTNV-1" vertex="1">
          <mxGeometry x="320" y="125.63" width="30" height="28.75" as="geometry" />
        </mxCell>
        <mxCell id="GSne50RD3aK7SdSidEnD-7" style="edgeStyle=orthogonalEdgeStyle;rounded=0;orthogonalLoop=1;jettySize=auto;html=1;exitX=0.5;exitY=1;exitDx=0;exitDy=0;entryX=0.5;entryY=0;entryDx=0;entryDy=0;shape=flexArrow;strokeWidth=1;endSize=1.6122448979591837;endWidth=6.097459391920033;width=2.2448979591836733;" parent="WIyWlLk6GJQsqaUBKTNV-1" target="GSne50RD3aK7SdSidEnD-0" edge="1">
          <mxGeometry relative="1" as="geometry">
            <Array as="points">
              <mxPoint x="527" y="270" />
              <mxPoint x="527" y="270" />
            </Array>
            <mxPoint x="527" y="170.00999999999988" as="sourcePoint" />
          </mxGeometry>
        </mxCell>
        <mxCell id="NUtFxZyfIFD8DUdTuco--21" style="edgeStyle=orthogonalEdgeStyle;rounded=0;orthogonalLoop=1;jettySize=auto;html=1;exitX=0.25;exitY=1;exitDx=0;exitDy=0;entryX=1;entryY=0.5;entryDx=0;entryDy=0;endArrow=none;endFill=0;" edge="1" parent="WIyWlLk6GJQsqaUBKTNV-1" source="dUlK9dB9uf_rlsajjsYS-2" target="NUtFxZyfIFD8DUdTuco--20">
          <mxGeometry relative="1" as="geometry" />
        </mxCell>
        <mxCell id="dUlK9dB9uf_rlsajjsYS-2" value="&lt;font style=&quot;font-size: 15px;&quot;&gt;Encomenda&lt;/font&gt;" style="rounded=0;whiteSpace=wrap;html=1;" parent="WIyWlLk6GJQsqaUBKTNV-1" vertex="1">
          <mxGeometry x="420" y="110.01" width="120" height="60" as="geometry" />
        </mxCell>
        <mxCell id="dUlK9dB9uf_rlsajjsYS-3" value="" style="endArrow=none;html=1;rounded=0;entryX=0;entryY=0.5;entryDx=0;entryDy=0;exitX=1;exitY=0.5;exitDx=0;exitDy=0;" parent="WIyWlLk6GJQsqaUBKTNV-1" source="dUlK9dB9uf_rlsajjsYS-0" target="dUlK9dB9uf_rlsajjsYS-1" edge="1">
          <mxGeometry width="50" height="50" relative="1" as="geometry">
            <mxPoint x="270" y="180" as="sourcePoint" />
            <mxPoint x="320" y="130" as="targetPoint" />
          </mxGeometry>
        </mxCell>
        <mxCell id="dUlK9dB9uf_rlsajjsYS-9" value="" style="shape=flexArrow;endArrow=classic;html=1;rounded=0;endWidth=4.56679286100595;endSize=2.118229166666667;width=3.9583333333333335;" parent="WIyWlLk6GJQsqaUBKTNV-1" edge="1">
          <mxGeometry width="50" height="50" relative="1" as="geometry">
            <mxPoint x="420" y="140" as="sourcePoint" />
            <mxPoint x="350" y="139.96" as="targetPoint" />
            <Array as="points">
              <mxPoint x="390" y="139.96" />
            </Array>
          </mxGeometry>
        </mxCell>
        <mxCell id="dUlK9dB9uf_rlsajjsYS-12" value="&lt;u&gt;número&lt;/u&gt;" style="ellipse;whiteSpace=wrap;html=1;" parent="WIyWlLk6GJQsqaUBKTNV-1" vertex="1">
          <mxGeometry x="210" y="30" width="70" height="50" as="geometry" />
        </mxCell>
        <mxCell id="dUlK9dB9uf_rlsajjsYS-14" value="e-mail" style="ellipse;whiteSpace=wrap;html=1;fontStyle=4" parent="WIyWlLk6GJQsqaUBKTNV-1" vertex="1">
          <mxGeometry x="120" y="10" width="70" height="50" as="geometry" />
        </mxCell>
        <mxCell id="dUlK9dB9uf_rlsajjsYS-16" value="telemóvel" style="ellipse;whiteSpace=wrap;html=1;" parent="WIyWlLk6GJQsqaUBKTNV-1" vertex="1">
          <mxGeometry x="30" y="30" width="70" height="50" as="geometry" />
        </mxCell>
        <mxCell id="dUlK9dB9uf_rlsajjsYS-17" value="nome" style="ellipse;whiteSpace=wrap;html=1;" parent="WIyWlLk6GJQsqaUBKTNV-1" vertex="1">
          <mxGeometry y="104.38" width="70" height="50" as="geometry" />
        </mxCell>
        <mxCell id="dUlK9dB9uf_rlsajjsYS-18" value="morada" style="ellipse;whiteSpace=wrap;html=1;" parent="WIyWlLk6GJQsqaUBKTNV-1" vertex="1">
          <mxGeometry x="30" y="180" width="70" height="50" as="geometry" />
        </mxCell>
        <mxCell id="dUlK9dB9uf_rlsajjsYS-19" value="" style="endArrow=none;html=1;rounded=0;entryX=0.5;entryY=1;entryDx=0;entryDy=0;exitX=0.295;exitY=0.005;exitDx=0;exitDy=0;exitPerimeter=0;" parent="WIyWlLk6GJQsqaUBKTNV-1" source="dUlK9dB9uf_rlsajjsYS-0" target="dUlK9dB9uf_rlsajjsYS-14" edge="1">
          <mxGeometry width="50" height="50" relative="1" as="geometry">
            <mxPoint x="120" y="160" as="sourcePoint" />
            <mxPoint x="170" y="110" as="targetPoint" />
          </mxGeometry>
        </mxCell>
        <mxCell id="dUlK9dB9uf_rlsajjsYS-21" value="" style="endArrow=none;html=1;rounded=0;entryX=0.175;entryY=0.885;entryDx=0;entryDy=0;entryPerimeter=0;exitX=0.659;exitY=0;exitDx=0;exitDy=0;exitPerimeter=0;" parent="WIyWlLk6GJQsqaUBKTNV-1" source="dUlK9dB9uf_rlsajjsYS-0" target="dUlK9dB9uf_rlsajjsYS-12" edge="1">
          <mxGeometry width="50" height="50" relative="1" as="geometry">
            <mxPoint x="130" y="130" as="sourcePoint" />
            <mxPoint x="180" y="80" as="targetPoint" />
          </mxGeometry>
        </mxCell>
        <mxCell id="dUlK9dB9uf_rlsajjsYS-22" value="" style="endArrow=none;html=1;rounded=0;entryX=0.883;entryY=0.819;entryDx=0;entryDy=0;entryPerimeter=0;exitX=0;exitY=0;exitDx=0;exitDy=0;" parent="WIyWlLk6GJQsqaUBKTNV-1" source="dUlK9dB9uf_rlsajjsYS-0" target="dUlK9dB9uf_rlsajjsYS-16" edge="1">
          <mxGeometry width="50" height="50" relative="1" as="geometry">
            <mxPoint x="100" y="120" as="sourcePoint" />
            <mxPoint x="150" y="70" as="targetPoint" />
          </mxGeometry>
        </mxCell>
        <mxCell id="dUlK9dB9uf_rlsajjsYS-23" value="" style="endArrow=none;html=1;rounded=0;entryX=0.001;entryY=0.323;entryDx=0;entryDy=0;entryPerimeter=0;exitX=1;exitY=0.5;exitDx=0;exitDy=0;" parent="WIyWlLk6GJQsqaUBKTNV-1" source="dUlK9dB9uf_rlsajjsYS-17" target="dUlK9dB9uf_rlsajjsYS-0" edge="1">
          <mxGeometry width="50" height="50" relative="1" as="geometry">
            <mxPoint x="50" y="150" as="sourcePoint" />
            <mxPoint x="100" y="100" as="targetPoint" />
          </mxGeometry>
        </mxCell>
        <mxCell id="dUlK9dB9uf_rlsajjsYS-24" value="" style="endArrow=none;html=1;rounded=0;exitX=1;exitY=0;exitDx=0;exitDy=0;entryX=0;entryY=1;entryDx=0;entryDy=0;" parent="WIyWlLk6GJQsqaUBKTNV-1" source="dUlK9dB9uf_rlsajjsYS-18" target="dUlK9dB9uf_rlsajjsYS-0" edge="1">
          <mxGeometry width="50" height="50" relative="1" as="geometry">
            <mxPoint x="70" y="200" as="sourcePoint" />
            <mxPoint x="120" y="150" as="targetPoint" />
          </mxGeometry>
        </mxCell>
        <mxCell id="dUlK9dB9uf_rlsajjsYS-26" value="&lt;u&gt;nº de encomenda&lt;/u&gt;" style="ellipse;whiteSpace=wrap;html=1;" parent="WIyWlLk6GJQsqaUBKTNV-1" vertex="1">
          <mxGeometry x="390" width="76" height="60" as="geometry" />
        </mxCell>
        <mxCell id="dUlK9dB9uf_rlsajjsYS-27" value="data da encomenda" style="ellipse;whiteSpace=wrap;html=1;" parent="WIyWlLk6GJQsqaUBKTNV-1" vertex="1">
          <mxGeometry x="500" y="10" width="70" height="50" as="geometry" />
        </mxCell>
        <mxCell id="dUlK9dB9uf_rlsajjsYS-28" value="" style="endArrow=none;html=1;rounded=0;entryX=0.5;entryY=1;entryDx=0;entryDy=0;exitX=0.75;exitY=0;exitDx=0;exitDy=0;" parent="WIyWlLk6GJQsqaUBKTNV-1" source="dUlK9dB9uf_rlsajjsYS-2" target="dUlK9dB9uf_rlsajjsYS-27" edge="1">
          <mxGeometry width="50" height="50" relative="1" as="geometry">
            <mxPoint x="480" y="140" as="sourcePoint" />
            <mxPoint x="530" y="90" as="targetPoint" />
          </mxGeometry>
        </mxCell>
        <mxCell id="dUlK9dB9uf_rlsajjsYS-29" value="" style="endArrow=none;html=1;rounded=0;entryX=0.5;entryY=1;entryDx=0;entryDy=0;exitX=0.25;exitY=0;exitDx=0;exitDy=0;" parent="WIyWlLk6GJQsqaUBKTNV-1" source="dUlK9dB9uf_rlsajjsYS-2" target="dUlK9dB9uf_rlsajjsYS-26" edge="1">
          <mxGeometry width="50" height="50" relative="1" as="geometry">
            <mxPoint x="490" y="120" as="sourcePoint" />
            <mxPoint x="540" y="70" as="targetPoint" />
          </mxGeometry>
        </mxCell>
        <mxCell id="dUlK9dB9uf_rlsajjsYS-30" value="" style="rhombus;whiteSpace=wrap;html=1;" parent="WIyWlLk6GJQsqaUBKTNV-1" vertex="1">
          <mxGeometry x="630" y="125.63" width="30" height="28.75" as="geometry" />
        </mxCell>
        <mxCell id="dUlK9dB9uf_rlsajjsYS-31" value="&lt;font style=&quot;font-size: 15px;&quot;&gt;Produto&lt;/font&gt;" style="rounded=0;whiteSpace=wrap;html=1;" parent="WIyWlLk6GJQsqaUBKTNV-1" vertex="1">
          <mxGeometry x="750" y="110" width="120" height="60" as="geometry" />
        </mxCell>
        <mxCell id="dUlK9dB9uf_rlsajjsYS-32" value="" style="rounded=0;html=1;jettySize=auto;orthogonalLoop=1;fontSize=11;endArrow=block;endFill=0;endSize=8;strokeWidth=1;shadow=0;labelBackgroundColor=none;edgeStyle=orthogonalEdgeStyle;entryX=1;entryY=0.5;entryDx=0;entryDy=0;exitX=0;exitY=0.5;exitDx=0;exitDy=0;" parent="WIyWlLk6GJQsqaUBKTNV-1" source="dUlK9dB9uf_rlsajjsYS-31" target="dUlK9dB9uf_rlsajjsYS-30" edge="1">
          <mxGeometry relative="1" as="geometry">
            <mxPoint x="700.0299999999997" y="114.37" as="sourcePoint" />
            <mxPoint x="699.9955172413793" y="164.39758620689634" as="targetPoint" />
            <Array as="points" />
          </mxGeometry>
        </mxCell>
        <mxCell id="dUlK9dB9uf_rlsajjsYS-34" value="" style="endArrow=none;html=1;rounded=0;entryX=0.069;entryY=0.43;entryDx=0;entryDy=0;entryPerimeter=0;exitX=1;exitY=0.465;exitDx=0;exitDy=0;exitPerimeter=0;" parent="WIyWlLk6GJQsqaUBKTNV-1" source="dUlK9dB9uf_rlsajjsYS-2" target="dUlK9dB9uf_rlsajjsYS-30" edge="1">
          <mxGeometry width="50" height="50" relative="1" as="geometry">
            <mxPoint x="560" y="180" as="sourcePoint" />
            <mxPoint x="610" y="130" as="targetPoint" />
          </mxGeometry>
        </mxCell>
        <mxCell id="dUlK9dB9uf_rlsajjsYS-35" value="" style="endArrow=none;html=1;rounded=0;entryX=0.071;entryY=0.574;entryDx=0;entryDy=0;entryPerimeter=0;exitX=1.002;exitY=0.534;exitDx=0;exitDy=0;exitPerimeter=0;" parent="WIyWlLk6GJQsqaUBKTNV-1" source="dUlK9dB9uf_rlsajjsYS-2" target="dUlK9dB9uf_rlsajjsYS-30" edge="1">
          <mxGeometry width="50" height="50" relative="1" as="geometry">
            <mxPoint x="540" y="139.96" as="sourcePoint" />
            <mxPoint x="632" y="139.96" as="targetPoint" />
          </mxGeometry>
        </mxCell>
        <mxCell id="dUlK9dB9uf_rlsajjsYS-36" value="descrição" style="ellipse;whiteSpace=wrap;html=1;" parent="WIyWlLk6GJQsqaUBKTNV-1" vertex="1">
          <mxGeometry x="720" y="20" width="70" height="50" as="geometry" />
        </mxCell>
        <mxCell id="dUlK9dB9uf_rlsajjsYS-37" value="preço" style="ellipse;whiteSpace=wrap;html=1;" parent="WIyWlLk6GJQsqaUBKTNV-1" vertex="1">
          <mxGeometry x="820" y="20" width="70" height="50" as="geometry" />
        </mxCell>
        <mxCell id="dUlK9dB9uf_rlsajjsYS-38" value="&lt;u&gt;SKU&lt;/u&gt;" style="ellipse;whiteSpace=wrap;html=1;" parent="WIyWlLk6GJQsqaUBKTNV-1" vertex="1">
          <mxGeometry x="910" y="75.63" width="70" height="50" as="geometry" />
        </mxCell>
        <mxCell id="quJLtdytL3wUtsBtStdE-0" style="edgeStyle=orthogonalEdgeStyle;rounded=0;orthogonalLoop=1;jettySize=auto;html=1;exitX=0;exitY=0.5;exitDx=0;exitDy=0;entryX=1;entryY=0.75;entryDx=0;entryDy=0;endArrow=none;endFill=0;" parent="WIyWlLk6GJQsqaUBKTNV-1" source="dUlK9dB9uf_rlsajjsYS-40" target="dUlK9dB9uf_rlsajjsYS-31" edge="1">
          <mxGeometry relative="1" as="geometry" />
        </mxCell>
        <mxCell id="dUlK9dB9uf_rlsajjsYS-40" value="EAN" style="ellipse;whiteSpace=wrap;html=1;" parent="WIyWlLk6GJQsqaUBKTNV-1" vertex="1">
          <mxGeometry x="920" y="160" width="70" height="50" as="geometry" />
        </mxCell>
        <mxCell id="dUlK9dB9uf_rlsajjsYS-41" value="" style="endArrow=none;html=1;rounded=0;entryX=0.5;entryY=1;entryDx=0;entryDy=0;exitX=0.25;exitY=0;exitDx=0;exitDy=0;" parent="WIyWlLk6GJQsqaUBKTNV-1" source="dUlK9dB9uf_rlsajjsYS-31" target="dUlK9dB9uf_rlsajjsYS-36" edge="1">
          <mxGeometry width="50" height="50" relative="1" as="geometry">
            <mxPoint x="710" y="170" as="sourcePoint" />
            <mxPoint x="760" y="120" as="targetPoint" />
          </mxGeometry>
        </mxCell>
        <mxCell id="dUlK9dB9uf_rlsajjsYS-42" value="" style="endArrow=none;html=1;rounded=0;entryX=0.5;entryY=1;entryDx=0;entryDy=0;exitX=0.75;exitY=0;exitDx=0;exitDy=0;" parent="WIyWlLk6GJQsqaUBKTNV-1" source="dUlK9dB9uf_rlsajjsYS-31" target="dUlK9dB9uf_rlsajjsYS-37" edge="1">
          <mxGeometry width="50" height="50" relative="1" as="geometry">
            <mxPoint x="710" y="150" as="sourcePoint" />
            <mxPoint x="760" y="100" as="targetPoint" />
          </mxGeometry>
        </mxCell>
        <mxCell id="dUlK9dB9uf_rlsajjsYS-43" value="" style="endArrow=none;html=1;rounded=0;entryX=0;entryY=1;entryDx=0;entryDy=0;exitX=1;exitY=0.5;exitDx=0;exitDy=0;" parent="WIyWlLk6GJQsqaUBKTNV-1" source="dUlK9dB9uf_rlsajjsYS-31" target="dUlK9dB9uf_rlsajjsYS-38" edge="1">
          <mxGeometry width="50" height="50" relative="1" as="geometry">
            <mxPoint x="830" y="170" as="sourcePoint" />
            <mxPoint x="880" y="120" as="targetPoint" />
          </mxGeometry>
        </mxCell>
        <mxCell id="dUlK9dB9uf_rlsajjsYS-44" value="&lt;font style=&quot;font-size: 10px;&quot;&gt;Efetua&amp;nbsp; &amp;gt;&lt;/font&gt;" style="text;html=1;align=center;verticalAlign=middle;resizable=0;points=[];autosize=1;strokeColor=none;fillColor=none;" parent="WIyWlLk6GJQsqaUBKTNV-1" vertex="1">
          <mxGeometry x="300" y="95.63" width="70" height="30" as="geometry" />
        </mxCell>
        <mxCell id="dUlK9dB9uf_rlsajjsYS-45" value="&lt;font style=&quot;font-size: 10px;&quot;&gt;constituída por &amp;gt;&lt;/font&gt;" style="text;html=1;align=center;verticalAlign=middle;resizable=0;points=[];autosize=1;strokeColor=none;fillColor=none;" parent="WIyWlLk6GJQsqaUBKTNV-1" vertex="1">
          <mxGeometry x="595" y="95.63" width="100" height="30" as="geometry" />
        </mxCell>
        <mxCell id="dUlK9dB9uf_rlsajjsYS-46" value="&lt;font style=&quot;font-size: 15px;&quot;&gt;Fornecedor&lt;/font&gt;" style="rounded=0;whiteSpace=wrap;html=1;" parent="WIyWlLk6GJQsqaUBKTNV-1" vertex="1">
          <mxGeometry x="750" y="370" width="120" height="60" as="geometry" />
        </mxCell>
        <mxCell id="NUtFxZyfIFD8DUdTuco--5" style="edgeStyle=orthogonalEdgeStyle;rounded=0;orthogonalLoop=1;jettySize=auto;html=1;entryX=0;entryY=0.5;entryDx=0;entryDy=0;shape=flexArrow;endWidth=7.988360323886639;endSize=2.293959731543624;width=4.1610738255033555;" edge="1" parent="WIyWlLk6GJQsqaUBKTNV-1" source="dUlK9dB9uf_rlsajjsYS-47" target="TBSbjotnk0CT5dtNG1RA-16">
          <mxGeometry relative="1" as="geometry" />
        </mxCell>
        <mxCell id="NUtFxZyfIFD8DUdTuco--26" style="edgeStyle=orthogonalEdgeStyle;rounded=0;orthogonalLoop=1;jettySize=auto;html=1;exitX=1;exitY=0.5;exitDx=0;exitDy=0;entryX=0;entryY=0.5;entryDx=0;entryDy=0;endWidth=8.907657657657658;endArrow=none;endFill=0;" edge="1" parent="WIyWlLk6GJQsqaUBKTNV-1" source="dUlK9dB9uf_rlsajjsYS-47" target="NUtFxZyfIFD8DUdTuco--18">
          <mxGeometry relative="1" as="geometry" />
        </mxCell>
        <mxCell id="dUlK9dB9uf_rlsajjsYS-47" value="&lt;font style=&quot;font-size: 15px;&quot;&gt;Método de Pagamento&lt;/font&gt;" style="rounded=0;whiteSpace=wrap;html=1;" parent="WIyWlLk6GJQsqaUBKTNV-1" vertex="1">
          <mxGeometry x="78" y="361" width="120" height="60" as="geometry" />
        </mxCell>
        <mxCell id="dUlK9dB9uf_rlsajjsYS-49" value="&lt;u&gt;token&lt;/u&gt;" style="ellipse;whiteSpace=wrap;html=1;" parent="WIyWlLk6GJQsqaUBKTNV-1" vertex="1">
          <mxGeometry x="-42" y="321" width="70" height="50" as="geometry" />
        </mxCell>
        <mxCell id="dUlK9dB9uf_rlsajjsYS-50" value="nome" style="ellipse;whiteSpace=wrap;html=1;" parent="WIyWlLk6GJQsqaUBKTNV-1" vertex="1">
          <mxGeometry x="-42" y="411" width="70" height="50" as="geometry" />
        </mxCell>
        <mxCell id="dUlK9dB9uf_rlsajjsYS-51" value="" style="endArrow=none;html=1;rounded=0;exitX=1;exitY=0.5;exitDx=0;exitDy=0;entryX=0;entryY=0.25;entryDx=0;entryDy=0;" parent="WIyWlLk6GJQsqaUBKTNV-1" source="dUlK9dB9uf_rlsajjsYS-49" target="dUlK9dB9uf_rlsajjsYS-47" edge="1">
          <mxGeometry width="50" height="50" relative="1" as="geometry">
            <mxPoint x="8" y="401" as="sourcePoint" />
            <mxPoint x="58" y="351" as="targetPoint" />
          </mxGeometry>
        </mxCell>
        <mxCell id="dUlK9dB9uf_rlsajjsYS-52" value="" style="endArrow=none;html=1;rounded=0;entryX=0;entryY=0.75;entryDx=0;entryDy=0;exitX=1;exitY=0.5;exitDx=0;exitDy=0;" parent="WIyWlLk6GJQsqaUBKTNV-1" source="dUlK9dB9uf_rlsajjsYS-50" target="dUlK9dB9uf_rlsajjsYS-47" edge="1">
          <mxGeometry width="50" height="50" relative="1" as="geometry">
            <mxPoint x="18" y="441" as="sourcePoint" />
            <mxPoint x="68" y="391" as="targetPoint" />
          </mxGeometry>
        </mxCell>
        <mxCell id="dUlK9dB9uf_rlsajjsYS-53" value="&lt;font style=&quot;font-size: 15px;&quot;&gt;Local de Trabalho&lt;/font&gt;" style="rounded=0;whiteSpace=wrap;html=1;" parent="WIyWlLk6GJQsqaUBKTNV-1" vertex="1">
          <mxGeometry x="71" y="599.99" width="120" height="60" as="geometry" />
        </mxCell>
        <mxCell id="GSne50RD3aK7SdSidEnD-6" style="edgeStyle=orthogonalEdgeStyle;rounded=0;orthogonalLoop=1;jettySize=auto;html=1;exitX=0.5;exitY=0;exitDx=0;exitDy=0;entryX=0.5;entryY=1;entryDx=0;entryDy=0;endArrow=none;endFill=0;" parent="WIyWlLk6GJQsqaUBKTNV-1" target="GSne50RD3aK7SdSidEnD-0" edge="1">
          <mxGeometry relative="1" as="geometry">
            <mxPoint x="527" y="600" as="sourcePoint" />
          </mxGeometry>
        </mxCell>
        <mxCell id="dUlK9dB9uf_rlsajjsYS-54" value="&lt;font style=&quot;font-size: 15px;&quot;&gt;Empregado&lt;/font&gt;" style="rounded=0;whiteSpace=wrap;html=1;" parent="WIyWlLk6GJQsqaUBKTNV-1" vertex="1">
          <mxGeometry x="451" y="600" width="120" height="60" as="geometry" />
        </mxCell>
        <mxCell id="dUlK9dB9uf_rlsajjsYS-55" value="&lt;u&gt;SS.&lt;/u&gt;" style="ellipse;whiteSpace=wrap;html=1;" parent="WIyWlLk6GJQsqaUBKTNV-1" vertex="1">
          <mxGeometry x="571" y="510" width="70" height="50" as="geometry" />
        </mxCell>
        <mxCell id="dUlK9dB9uf_rlsajjsYS-57" value="NIF" style="ellipse;whiteSpace=wrap;html=1;" parent="WIyWlLk6GJQsqaUBKTNV-1" vertex="1">
          <mxGeometry x="631" y="570" width="70" height="50" as="geometry" />
        </mxCell>
        <mxCell id="dUlK9dB9uf_rlsajjsYS-58" value="nome" style="ellipse;whiteSpace=wrap;html=1;" parent="WIyWlLk6GJQsqaUBKTNV-1" vertex="1">
          <mxGeometry x="631" y="630" width="70" height="50" as="geometry" />
        </mxCell>
        <mxCell id="dUlK9dB9uf_rlsajjsYS-59" value="data de nascimento" style="ellipse;whiteSpace=wrap;html=1;" parent="WIyWlLk6GJQsqaUBKTNV-1" vertex="1">
          <mxGeometry x="571" y="690" width="70" height="60" as="geometry" />
        </mxCell>
        <mxCell id="dUlK9dB9uf_rlsajjsYS-60" value="" style="endArrow=none;html=1;rounded=0;entryX=0;entryY=0;entryDx=0;entryDy=0;exitX=0.75;exitY=1;exitDx=0;exitDy=0;" parent="WIyWlLk6GJQsqaUBKTNV-1" source="dUlK9dB9uf_rlsajjsYS-54" target="dUlK9dB9uf_rlsajjsYS-59" edge="1">
          <mxGeometry width="50" height="50" relative="1" as="geometry">
            <mxPoint x="491" y="740" as="sourcePoint" />
            <mxPoint x="541" y="690" as="targetPoint" />
          </mxGeometry>
        </mxCell>
        <mxCell id="dUlK9dB9uf_rlsajjsYS-61" value="" style="endArrow=none;html=1;rounded=0;entryX=0;entryY=1;entryDx=0;entryDy=0;exitX=0.75;exitY=0;exitDx=0;exitDy=0;" parent="WIyWlLk6GJQsqaUBKTNV-1" source="dUlK9dB9uf_rlsajjsYS-54" target="dUlK9dB9uf_rlsajjsYS-55" edge="1">
          <mxGeometry width="50" height="50" relative="1" as="geometry">
            <mxPoint x="501" y="620" as="sourcePoint" />
            <mxPoint x="551" y="570" as="targetPoint" />
          </mxGeometry>
        </mxCell>
        <mxCell id="dUlK9dB9uf_rlsajjsYS-62" value="" style="endArrow=none;html=1;rounded=0;entryX=0;entryY=0.5;entryDx=0;entryDy=0;exitX=1;exitY=0.25;exitDx=0;exitDy=0;" parent="WIyWlLk6GJQsqaUBKTNV-1" source="dUlK9dB9uf_rlsajjsYS-54" target="dUlK9dB9uf_rlsajjsYS-57" edge="1">
          <mxGeometry width="50" height="50" relative="1" as="geometry">
            <mxPoint x="561" y="680" as="sourcePoint" />
            <mxPoint x="611" y="630" as="targetPoint" />
          </mxGeometry>
        </mxCell>
        <mxCell id="dUlK9dB9uf_rlsajjsYS-63" value="" style="endArrow=none;html=1;rounded=0;entryX=0;entryY=0.5;entryDx=0;entryDy=0;exitX=1;exitY=0.75;exitDx=0;exitDy=0;" parent="WIyWlLk6GJQsqaUBKTNV-1" source="dUlK9dB9uf_rlsajjsYS-54" target="dUlK9dB9uf_rlsajjsYS-58" edge="1">
          <mxGeometry width="50" height="50" relative="1" as="geometry">
            <mxPoint x="551" y="710" as="sourcePoint" />
            <mxPoint x="601" y="660" as="targetPoint" />
          </mxGeometry>
        </mxCell>
        <mxCell id="f_ABxHvpBwnRaJqlBTTa-3" style="edgeStyle=orthogonalEdgeStyle;rounded=0;orthogonalLoop=1;jettySize=auto;html=1;entryX=0.5;entryY=0;entryDx=0;entryDy=0;endArrow=none;endFill=0;" parent="WIyWlLk6GJQsqaUBKTNV-1" source="dUlK9dB9uf_rlsajjsYS-65" target="dUlK9dB9uf_rlsajjsYS-80" edge="1">
          <mxGeometry relative="1" as="geometry" />
        </mxCell>
        <mxCell id="f_ABxHvpBwnRaJqlBTTa-4" style="edgeStyle=orthogonalEdgeStyle;rounded=0;orthogonalLoop=1;jettySize=auto;html=1;exitX=1;exitY=0.5;exitDx=0;exitDy=0;entryX=0;entryY=0.5;entryDx=0;entryDy=0;shape=link;" parent="WIyWlLk6GJQsqaUBKTNV-1" source="dUlK9dB9uf_rlsajjsYS-65" target="dUlK9dB9uf_rlsajjsYS-54" edge="1">
          <mxGeometry relative="1" as="geometry" />
        </mxCell>
        <mxCell id="f_ABxHvpBwnRaJqlBTTa-5" style="edgeStyle=orthogonalEdgeStyle;rounded=0;orthogonalLoop=1;jettySize=auto;html=1;exitX=0;exitY=0.5;exitDx=0;exitDy=0;entryX=1;entryY=0.5;entryDx=0;entryDy=0;endArrow=none;endFill=0;" parent="WIyWlLk6GJQsqaUBKTNV-1" source="dUlK9dB9uf_rlsajjsYS-65" target="dUlK9dB9uf_rlsajjsYS-53" edge="1">
          <mxGeometry relative="1" as="geometry" />
        </mxCell>
        <mxCell id="dUlK9dB9uf_rlsajjsYS-65" value="" style="rhombus;whiteSpace=wrap;html=1;" parent="WIyWlLk6GJQsqaUBKTNV-1" vertex="1">
          <mxGeometry x="351" y="615.62" width="30" height="28.75" as="geometry" />
        </mxCell>
        <mxCell id="dUlK9dB9uf_rlsajjsYS-66" value="&lt;u&gt;GPS&lt;/u&gt;" style="ellipse;whiteSpace=wrap;html=1;" parent="WIyWlLk6GJQsqaUBKTNV-1" vertex="1">
          <mxGeometry x="-49" y="559.99" width="70" height="50" as="geometry" />
        </mxCell>
        <mxCell id="dUlK9dB9uf_rlsajjsYS-67" value="endereço" style="ellipse;whiteSpace=wrap;html=1;" parent="WIyWlLk6GJQsqaUBKTNV-1" vertex="1">
          <mxGeometry x="-49" y="649.99" width="70" height="50" as="geometry" />
        </mxCell>
        <mxCell id="dUlK9dB9uf_rlsajjsYS-68" value="" style="endArrow=none;html=1;rounded=0;entryX=1;entryY=0.5;entryDx=0;entryDy=0;exitX=0;exitY=0.25;exitDx=0;exitDy=0;" parent="WIyWlLk6GJQsqaUBKTNV-1" source="dUlK9dB9uf_rlsajjsYS-53" target="dUlK9dB9uf_rlsajjsYS-66" edge="1">
          <mxGeometry width="50" height="50" relative="1" as="geometry">
            <mxPoint x="-19" y="679.99" as="sourcePoint" />
            <mxPoint x="31" y="629.99" as="targetPoint" />
          </mxGeometry>
        </mxCell>
        <mxCell id="dUlK9dB9uf_rlsajjsYS-69" value="" style="endArrow=none;html=1;rounded=0;entryX=0;entryY=0.75;entryDx=0;entryDy=0;exitX=1;exitY=0.5;exitDx=0;exitDy=0;" parent="WIyWlLk6GJQsqaUBKTNV-1" source="dUlK9dB9uf_rlsajjsYS-67" target="dUlK9dB9uf_rlsajjsYS-53" edge="1">
          <mxGeometry width="50" height="50" relative="1" as="geometry">
            <mxPoint x="-9" y="709.99" as="sourcePoint" />
            <mxPoint x="41" y="659.99" as="targetPoint" />
          </mxGeometry>
        </mxCell>
        <mxCell id="dUlK9dB9uf_rlsajjsYS-73" value="nome" style="ellipse;whiteSpace=wrap;html=1;" parent="WIyWlLk6GJQsqaUBKTNV-1" vertex="1">
          <mxGeometry x="900" y="300" width="70" height="50" as="geometry" />
        </mxCell>
        <mxCell id="dUlK9dB9uf_rlsajjsYS-75" value="endereço" style="ellipse;whiteSpace=wrap;html=1;" parent="WIyWlLk6GJQsqaUBKTNV-1" vertex="1">
          <mxGeometry x="930" y="375" width="70" height="50" as="geometry" />
        </mxCell>
        <mxCell id="dUlK9dB9uf_rlsajjsYS-76" value="&lt;u&gt;NIF&lt;/u&gt;" style="ellipse;whiteSpace=wrap;html=1;" parent="WIyWlLk6GJQsqaUBKTNV-1" vertex="1">
          <mxGeometry x="900" y="450" width="70" height="50" as="geometry" />
        </mxCell>
        <mxCell id="dUlK9dB9uf_rlsajjsYS-77" value="" style="endArrow=none;html=1;rounded=0;entryX=0;entryY=0.5;entryDx=0;entryDy=0;exitX=1;exitY=0.5;exitDx=0;exitDy=0;" parent="WIyWlLk6GJQsqaUBKTNV-1" source="dUlK9dB9uf_rlsajjsYS-46" target="dUlK9dB9uf_rlsajjsYS-75" edge="1">
          <mxGeometry width="50" height="50" relative="1" as="geometry">
            <mxPoint x="840" y="460" as="sourcePoint" />
            <mxPoint x="890" y="410" as="targetPoint" />
          </mxGeometry>
        </mxCell>
        <mxCell id="dUlK9dB9uf_rlsajjsYS-78" value="" style="endArrow=none;html=1;rounded=0;entryX=0;entryY=1;entryDx=0;entryDy=0;exitX=1;exitY=0;exitDx=0;exitDy=0;" parent="WIyWlLk6GJQsqaUBKTNV-1" source="dUlK9dB9uf_rlsajjsYS-46" target="dUlK9dB9uf_rlsajjsYS-73" edge="1">
          <mxGeometry width="50" height="50" relative="1" as="geometry">
            <mxPoint x="840" y="400" as="sourcePoint" />
            <mxPoint x="890" y="350" as="targetPoint" />
          </mxGeometry>
        </mxCell>
        <mxCell id="dUlK9dB9uf_rlsajjsYS-79" value="" style="endArrow=none;html=1;rounded=0;entryX=0;entryY=0;entryDx=0;entryDy=0;exitX=1;exitY=1;exitDx=0;exitDy=0;" parent="WIyWlLk6GJQsqaUBKTNV-1" source="dUlK9dB9uf_rlsajjsYS-46" target="dUlK9dB9uf_rlsajjsYS-76" edge="1">
          <mxGeometry width="50" height="50" relative="1" as="geometry">
            <mxPoint x="830" y="510" as="sourcePoint" />
            <mxPoint x="880" y="460" as="targetPoint" />
          </mxGeometry>
        </mxCell>
        <mxCell id="dUlK9dB9uf_rlsajjsYS-80" value="&lt;font style=&quot;font-size: 15px;&quot;&gt;Departamento&lt;/font&gt;" style="rounded=0;whiteSpace=wrap;html=1;" parent="WIyWlLk6GJQsqaUBKTNV-1" vertex="1">
          <mxGeometry x="306" y="740" width="120" height="60" as="geometry" />
        </mxCell>
        <mxCell id="TBSbjotnk0CT5dtNG1RA-0" value="&lt;font style=&quot;font-size: 15px;&quot;&gt;Escritório&lt;/font&gt;" style="rounded=0;whiteSpace=wrap;html=1;" parent="WIyWlLk6GJQsqaUBKTNV-1" vertex="1">
          <mxGeometry x="-9" y="780" width="120" height="60" as="geometry" />
        </mxCell>
        <mxCell id="TBSbjotnk0CT5dtNG1RA-2" value="&lt;font style=&quot;font-size: 15px;&quot;&gt;Armazém&lt;/font&gt;" style="rounded=0;whiteSpace=wrap;html=1;" parent="WIyWlLk6GJQsqaUBKTNV-1" vertex="1">
          <mxGeometry x="151" y="780" width="120" height="60" as="geometry" />
        </mxCell>
        <mxCell id="TBSbjotnk0CT5dtNG1RA-3" value="" style="triangle;whiteSpace=wrap;html=1;rotation=-90;" parent="WIyWlLk6GJQsqaUBKTNV-1" vertex="1">
          <mxGeometry x="111" y="690" width="40" height="50" as="geometry" />
        </mxCell>
        <mxCell id="TBSbjotnk0CT5dtNG1RA-4" value="" style="endArrow=none;html=1;rounded=0;" parent="WIyWlLk6GJQsqaUBKTNV-1" edge="1">
          <mxGeometry width="50" height="50" relative="1" as="geometry">
            <mxPoint x="51" y="760" as="sourcePoint" />
            <mxPoint x="211" y="760" as="targetPoint" />
          </mxGeometry>
        </mxCell>
        <mxCell id="TBSbjotnk0CT5dtNG1RA-5" value="" style="endArrow=none;html=1;rounded=0;exitX=0.5;exitY=0;exitDx=0;exitDy=0;" parent="WIyWlLk6GJQsqaUBKTNV-1" source="TBSbjotnk0CT5dtNG1RA-0" edge="1">
          <mxGeometry width="50" height="50" relative="1" as="geometry">
            <mxPoint x="1" y="810" as="sourcePoint" />
            <mxPoint x="51" y="760" as="targetPoint" />
          </mxGeometry>
        </mxCell>
        <mxCell id="TBSbjotnk0CT5dtNG1RA-6" value="" style="endArrow=none;html=1;rounded=0;exitX=0.5;exitY=0;exitDx=0;exitDy=0;" parent="WIyWlLk6GJQsqaUBKTNV-1" source="TBSbjotnk0CT5dtNG1RA-2" edge="1">
          <mxGeometry width="50" height="50" relative="1" as="geometry">
            <mxPoint x="161" y="810" as="sourcePoint" />
            <mxPoint x="211" y="760" as="targetPoint" />
          </mxGeometry>
        </mxCell>
        <mxCell id="TBSbjotnk0CT5dtNG1RA-7" value="" style="endArrow=none;html=1;rounded=0;exitX=0;exitY=0.5;exitDx=0;exitDy=0;" parent="WIyWlLk6GJQsqaUBKTNV-1" source="TBSbjotnk0CT5dtNG1RA-3" edge="1">
          <mxGeometry width="50" height="50" relative="1" as="geometry">
            <mxPoint x="81" y="810" as="sourcePoint" />
            <mxPoint x="131" y="760" as="targetPoint" />
          </mxGeometry>
        </mxCell>
        <mxCell id="TBSbjotnk0CT5dtNG1RA-8" value="" style="shape=link;html=1;rounded=0;entryX=0.5;entryY=1;entryDx=0;entryDy=0;exitX=1;exitY=0.5;exitDx=0;exitDy=0;" parent="WIyWlLk6GJQsqaUBKTNV-1" source="TBSbjotnk0CT5dtNG1RA-3" target="dUlK9dB9uf_rlsajjsYS-53" edge="1">
          <mxGeometry width="100" relative="1" as="geometry">
            <mxPoint x="51" y="700" as="sourcePoint" />
            <mxPoint x="151" y="700" as="targetPoint" />
          </mxGeometry>
        </mxCell>
        <mxCell id="NUtFxZyfIFD8DUdTuco--12" style="edgeStyle=orthogonalEdgeStyle;rounded=0;orthogonalLoop=1;jettySize=auto;html=1;exitX=0.5;exitY=0;exitDx=0;exitDy=0;entryX=0.5;entryY=1;entryDx=0;entryDy=0;shape=link;" edge="1" parent="WIyWlLk6GJQsqaUBKTNV-1" source="TBSbjotnk0CT5dtNG1RA-10" target="dUlK9dB9uf_rlsajjsYS-0">
          <mxGeometry relative="1" as="geometry" />
        </mxCell>
        <mxCell id="TBSbjotnk0CT5dtNG1RA-10" value="" style="rhombus;whiteSpace=wrap;html=1;" parent="WIyWlLk6GJQsqaUBKTNV-1" vertex="1">
          <mxGeometry x="123" y="250" width="30" height="28.75" as="geometry" />
        </mxCell>
        <mxCell id="TBSbjotnk0CT5dtNG1RA-12" value="" style="endArrow=classic;html=1;rounded=0;exitX=0.5;exitY=0;exitDx=0;exitDy=0;" parent="WIyWlLk6GJQsqaUBKTNV-1" source="dUlK9dB9uf_rlsajjsYS-47" edge="1">
          <mxGeometry width="50" height="50" relative="1" as="geometry">
            <mxPoint x="88" y="330" as="sourcePoint" />
            <mxPoint x="138" y="280" as="targetPoint" />
          </mxGeometry>
        </mxCell>
        <mxCell id="NUtFxZyfIFD8DUdTuco--2" style="edgeStyle=orthogonalEdgeStyle;rounded=0;orthogonalLoop=1;jettySize=auto;html=1;entryX=1;entryY=0.75;entryDx=0;entryDy=0;endArrow=none;endFill=0;" edge="1" parent="WIyWlLk6GJQsqaUBKTNV-1" source="TBSbjotnk0CT5dtNG1RA-16" target="dUlK9dB9uf_rlsajjsYS-47">
          <mxGeometry relative="1" as="geometry" />
        </mxCell>
        <mxCell id="TBSbjotnk0CT5dtNG1RA-16" value="" style="rhombus;whiteSpace=wrap;html=1;" parent="WIyWlLk6GJQsqaUBKTNV-1" vertex="1">
          <mxGeometry x="198" y="452.25" width="40" height="38.75" as="geometry" />
        </mxCell>
        <mxCell id="TBSbjotnk0CT5dtNG1RA-20" value="IC (método de pagamento substituto não pode ter método de pagamento substituto)" style="text;html=1;align=center;verticalAlign=middle;resizable=0;points=[];autosize=1;strokeColor=none;fillColor=none;" parent="WIyWlLk6GJQsqaUBKTNV-1" vertex="1">
          <mxGeometry x="-141" y="491" width="470" height="30" as="geometry" />
        </mxCell>
        <mxCell id="TBSbjotnk0CT5dtNG1RA-21" value="quantidade" style="ellipse;whiteSpace=wrap;html=1;" parent="WIyWlLk6GJQsqaUBKTNV-1" vertex="1">
          <mxGeometry x="610" y="170.01" width="70" height="50" as="geometry" />
        </mxCell>
        <mxCell id="TBSbjotnk0CT5dtNG1RA-22" value="" style="endArrow=none;html=1;rounded=0;entryX=0.5;entryY=1;entryDx=0;entryDy=0;exitX=0.5;exitY=0;exitDx=0;exitDy=0;" parent="WIyWlLk6GJQsqaUBKTNV-1" source="TBSbjotnk0CT5dtNG1RA-21" target="dUlK9dB9uf_rlsajjsYS-30" edge="1">
          <mxGeometry width="50" height="50" relative="1" as="geometry">
            <mxPoint x="590" y="220" as="sourcePoint" />
            <mxPoint x="640" y="170" as="targetPoint" />
          </mxGeometry>
        </mxCell>
        <mxCell id="TBSbjotnk0CT5dtNG1RA-23" value="IC (metodos escolhidos de lista à priori)" style="text;html=1;align=center;verticalAlign=middle;resizable=0;points=[];autosize=1;strokeColor=none;fillColor=none;" parent="WIyWlLk6GJQsqaUBKTNV-1" vertex="1">
          <mxGeometry x="-162" y="290" width="250" height="30" as="geometry" />
        </mxCell>
        <mxCell id="TBSbjotnk0CT5dtNG1RA-24" value="Produtos podem ou não ter código EAN" style="text;html=1;align=center;verticalAlign=middle;resizable=0;points=[];autosize=1;strokeColor=none;fillColor=none;" parent="WIyWlLk6GJQsqaUBKTNV-1" vertex="1">
          <mxGeometry x="925" y="210" width="240" height="30" as="geometry" />
        </mxCell>
        <mxCell id="TBSbjotnk0CT5dtNG1RA-25" value="" style="rhombus;whiteSpace=wrap;html=1;" parent="WIyWlLk6GJQsqaUBKTNV-1" vertex="1">
          <mxGeometry x="790" y="255.62" width="30" height="28.75" as="geometry" />
        </mxCell>
        <mxCell id="TBSbjotnk0CT5dtNG1RA-26" value="" style="endArrow=none;html=1;rounded=0;entryX=0;entryY=0.5;entryDx=0;entryDy=0;exitX=1;exitY=0.5;exitDx=0;exitDy=0;" parent="WIyWlLk6GJQsqaUBKTNV-1" source="TBSbjotnk0CT5dtNG1RA-29" target="TBSbjotnk0CT5dtNG1RA-25" edge="1">
          <mxGeometry width="50" height="50" relative="1" as="geometry">
            <mxPoint x="730" y="290" as="sourcePoint" />
            <mxPoint x="780" y="260" as="targetPoint" />
          </mxGeometry>
        </mxCell>
        <mxCell id="TBSbjotnk0CT5dtNG1RA-28" value="fornece &amp;gt;" style="text;html=1;align=center;verticalAlign=middle;resizable=0;points=[];autosize=1;strokeColor=none;fillColor=none;" parent="WIyWlLk6GJQsqaUBKTNV-1" vertex="1">
          <mxGeometry x="815" y="254.37" width="80" height="30" as="geometry" />
        </mxCell>
        <mxCell id="TBSbjotnk0CT5dtNG1RA-29" value="&lt;font style=&quot;font-size: 15px;&quot;&gt;Contrato&lt;/font&gt;" style="rounded=0;whiteSpace=wrap;html=1;" parent="WIyWlLk6GJQsqaUBKTNV-1" vertex="1">
          <mxGeometry x="610" y="240" width="120" height="60" as="geometry" />
        </mxCell>
        <mxCell id="TBSbjotnk0CT5dtNG1RA-30" value="data" style="ellipse;whiteSpace=wrap;html=1;" parent="WIyWlLk6GJQsqaUBKTNV-1" vertex="1">
          <mxGeometry x="635" y="330" width="70" height="50" as="geometry" />
        </mxCell>
        <mxCell id="TBSbjotnk0CT5dtNG1RA-31" value="" style="endArrow=none;html=1;rounded=0;exitX=0.5;exitY=0;exitDx=0;exitDy=0;entryX=0.5;entryY=1;entryDx=0;entryDy=0;" parent="WIyWlLk6GJQsqaUBKTNV-1" source="TBSbjotnk0CT5dtNG1RA-30" target="TBSbjotnk0CT5dtNG1RA-29" edge="1">
          <mxGeometry width="50" height="50" relative="1" as="geometry">
            <mxPoint x="620" y="380" as="sourcePoint" />
            <mxPoint x="670" y="330" as="targetPoint" />
          </mxGeometry>
        </mxCell>
        <mxCell id="GSne50RD3aK7SdSidEnD-0" value="" style="rhombus;whiteSpace=wrap;html=1;" parent="WIyWlLk6GJQsqaUBKTNV-1" vertex="1">
          <mxGeometry x="512" y="290" width="30" height="28.75" as="geometry" />
        </mxCell>
        <mxCell id="f_ABxHvpBwnRaJqlBTTa-0" value="trabalha &amp;lt;" style="text;strokeColor=none;align=center;fillColor=none;html=1;verticalAlign=middle;whiteSpace=wrap;rounded=0;" parent="WIyWlLk6GJQsqaUBKTNV-1" vertex="1">
          <mxGeometry x="336" y="590" width="60" height="30" as="geometry" />
        </mxCell>
        <mxCell id="quJLtdytL3wUtsBtStdE-1" value="Os operadores do sistema não podem ver os nomes dos clientes." style="text;strokeColor=none;align=center;fillColor=none;html=1;verticalAlign=middle;whiteSpace=wrap;rounded=0;" parent="WIyWlLk6GJQsqaUBKTNV-1" vertex="1">
          <mxGeometry x="-217" y="112.01" width="210" height="30" as="geometry" />
        </mxCell>
        <mxCell id="quJLtdytL3wUtsBtStdE-5" value="introduz &amp;gt;" style="text;strokeColor=none;align=center;fillColor=none;html=1;verticalAlign=middle;whiteSpace=wrap;rounded=0;" parent="WIyWlLk6GJQsqaUBKTNV-1" vertex="1">
          <mxGeometry x="64" y="249" width="60" height="30" as="geometry" />
        </mxCell>
        <mxCell id="quJLtdytL3wUtsBtStdE-6" value="Clientes têm de introduzir mais do que um método de pagamento" style="text;strokeColor=none;align=center;fillColor=none;html=1;verticalAlign=middle;whiteSpace=wrap;rounded=0;" parent="WIyWlLk6GJQsqaUBKTNV-1" vertex="1">
          <mxGeometry x="-141" y="260" width="200" height="30" as="geometry" />
        </mxCell>
        <mxCell id="NUtFxZyfIFD8DUdTuco--6" value="Substituto" style="text;strokeColor=none;align=center;fillColor=none;html=1;verticalAlign=middle;whiteSpace=wrap;rounded=0;" vertex="1" parent="WIyWlLk6GJQsqaUBKTNV-1">
          <mxGeometry x="220" y="416" width="60" height="30" as="geometry" />
        </mxCell>
        <mxCell id="NUtFxZyfIFD8DUdTuco--7" value="Original" style="text;strokeColor=none;align=center;fillColor=none;html=1;verticalAlign=middle;whiteSpace=wrap;rounded=0;" vertex="1" parent="WIyWlLk6GJQsqaUBKTNV-1">
          <mxGeometry x="78" y="431" width="60" height="30" as="geometry" />
        </mxCell>
        <mxCell id="NUtFxZyfIFD8DUdTuco--18" value="" style="rhombus;whiteSpace=wrap;html=1;" vertex="1" parent="WIyWlLk6GJQsqaUBKTNV-1">
          <mxGeometry x="281" y="371" width="40" height="38.75" as="geometry" />
        </mxCell>
        <mxCell id="NUtFxZyfIFD8DUdTuco--24" style="edgeStyle=orthogonalEdgeStyle;rounded=0;orthogonalLoop=1;jettySize=auto;html=1;entryX=0;entryY=0.5;entryDx=0;entryDy=0;endArrow=none;endFill=0;" edge="1" parent="WIyWlLk6GJQsqaUBKTNV-1" source="NUtFxZyfIFD8DUdTuco--19" target="NUtFxZyfIFD8DUdTuco--20">
          <mxGeometry relative="1" as="geometry" />
        </mxCell>
        <mxCell id="NUtFxZyfIFD8DUdTuco--25" style="edgeStyle=orthogonalEdgeStyle;rounded=0;orthogonalLoop=1;jettySize=auto;html=1;entryX=1;entryY=0.5;entryDx=0;entryDy=0;shape=flexArrow;width=4.040404040404041;endSize=2.309090909090909;endWidth=11.70900928476686;" edge="1" parent="WIyWlLk6GJQsqaUBKTNV-1" source="NUtFxZyfIFD8DUdTuco--19" target="NUtFxZyfIFD8DUdTuco--18">
          <mxGeometry relative="1" as="geometry" />
        </mxCell>
        <mxCell id="NUtFxZyfIFD8DUdTuco--30" style="edgeStyle=orthogonalEdgeStyle;rounded=0;orthogonalLoop=1;jettySize=auto;html=1;entryX=0.5;entryY=0;entryDx=0;entryDy=0;endArrow=none;endFill=0;" edge="1" parent="WIyWlLk6GJQsqaUBKTNV-1" source="NUtFxZyfIFD8DUdTuco--19" target="NUtFxZyfIFD8DUdTuco--29">
          <mxGeometry relative="1" as="geometry" />
        </mxCell>
        <mxCell id="NUtFxZyfIFD8DUdTuco--19" value="&lt;font style=&quot;font-size: 15px;&quot;&gt;Venda&lt;/font&gt;" style="rounded=0;whiteSpace=wrap;html=1;" vertex="1" parent="WIyWlLk6GJQsqaUBKTNV-1">
          <mxGeometry x="390" y="360.38" width="120" height="60" as="geometry" />
        </mxCell>
        <mxCell id="NUtFxZyfIFD8DUdTuco--20" value="" style="triangle;whiteSpace=wrap;html=1;rotation=-90;" vertex="1" parent="WIyWlLk6GJQsqaUBKTNV-1">
          <mxGeometry x="430" y="244.37" width="40" height="50" as="geometry" />
        </mxCell>
        <mxCell id="NUtFxZyfIFD8DUdTuco--27" value="registada &amp;lt;" style="text;strokeColor=none;align=center;fillColor=none;html=1;verticalAlign=middle;whiteSpace=wrap;rounded=0;" vertex="1" parent="WIyWlLk6GJQsqaUBKTNV-1">
          <mxGeometry x="266" y="345" width="70" height="30" as="geometry" />
        </mxCell>
        <mxCell id="NUtFxZyfIFD8DUdTuco--29" value="data do pagamento" style="ellipse;whiteSpace=wrap;html=1;" vertex="1" parent="WIyWlLk6GJQsqaUBKTNV-1">
          <mxGeometry x="415" y="471" width="70" height="50" as="geometry" />
        </mxCell>
      </root>
    </mxGraphModel>
  </diagram>
</mxfile>
